:SAMPLES-PER-SECOND 30
:FRAME-RANGE 1-2643
:FULLY-SPECIFIED
:DEGREES
661
root  -64.5451 32.1219 -1.14427 66.7855 66.2846 62.4043
RightUpLeg  -42.103 -1.42059 0.276216
RightLeg  69.9021 -9.62191 -27.6484
RightFoot  -36.2055 -1.09854 -3.85992
RightToes  7.56698e-010 0 -3.6325e-017
Spine  35.1923 1.19077 -1.88106
Spine1  -4.82025 2.56082 -10.4434
HEad  -12.5023 -8.10383 -12.7817
LeftShoulder1  0.431134 0.964247 -9.59986
LeftArm  -40.225 -9.12536 11.9054
LeftForeArm  6.63463 -44.8622 -10.6956
LeftHand  -0.0541082 0.193313 1.1972
RightShoulder  2.13298 10.6404 7.52485
RightArm  -27.1044 9.97261 -3.41648
RightForeArm  0.589191 51.7128 14.2585
RightHand  -0.193424 -1.00167 -5.02417
LeftUpLeg  -23.9263 5.64578 13.6562
LeftLeg  26.6244 9.50989 5.49447
LeftFoot  -14.1838 -0.214645 -12.0299
LeftToes  1.48244e-010 1.61973e-010 3.308e-011
662
root  -65.0972 33.1041 -0.168343 60.7619 65.282 55.6953
RightUpLeg  -38.94 1.38927 2.24686
RightLeg  62.2396 -13.3292 -25.9168
RightFoot  -33.1994 -1.77405 -8.00191
RightToes  7.56698e-010 0 -3.6325e-017
Spine  35.1171 1.62351 -0.227906
Spine1  -4.47297 3.24157 -9.7876
HEad  -14.3455 -8.82204 -12.3478
LeftShoulder1  0.315707 0.965375 -4.51217
LeftArm  -40.6594 -3.30656 17.7887
LeftForeArm  -1.3529 -33.5341 -7.533
LeftHand  -0.0909492 2.27354 3.00097
RightShoulder  1.83359 11.2158 4.5626
RightArm  -36.4208 10.9066 -6.57412
RightForeArm  3.63379 60.1472 19.7906
RightHand  -0.192593 -2.20397 -6.7044
LeftUpLeg  -24.2877 6.04371 12.4839
LeftLeg  28.2525 8.80032 5.43777
LeftFoot  -14.3596 -0.274643 -13.6243
LeftToes  1.48244e-010 1.61973e-010 3.308e-011
663
root  -65.4699 34.0636 1.18612 57.2654 65.7375 51.0843
RightUpLeg  -35.3009 1.84132 5.72105
RightLeg  53.1762 -16.2287 -22.1751
RightFoot  -28.9524 -2.11785 -12.3503
RightToes  7.56698e-010 0 -3.6325e-017
Spine  33.2493 2.72171 -1.10701
Spine1  -3.89219 3.54616 -7.15289
HEad  -14.1115 -9.51441 -8.97086
LeftShoulder1  0.170158 1.57434 -0.413343
LeftArm  -45.5328 5.52731 19.4745
LeftForeArm  2.21083 -38.1534 -8.66871
LeftHand  -0.092154 3.04816 3.89048
RightShoulder  1.45282 6.73717 6.52981
RightArm  -37.5398 6.2475 -7.65393
RightForeArm  11.9585 67.0476 26.9565
RightHand  -0.192963 -2.8181 -8.22981
LeftUpLeg  -26.4238 5.26305 12.3418
LeftLeg  34.9032 9.79934 7.63233
LeftFoot  -14.1918 -0.254103 -13.5648
LeftToes  1.48244e-010 1.61973e-010 3.308e-011
664
root  -65.7197 35.1045 2.69432 53.3475 68.8078 46.2707
RightUpLeg  -30.9482 -3.76305 11.8907
RightLeg  42.0356 -14.6676 -14.0133
RightFoot  -22.3945 -1.78572 -16.76
RightToes  7.56698e-010 0 -3.6325e-017
Spine  31.7119 3.09399 -1.54237
Spine1  -4.80871 2.77 -2.34139
HEad  -10.1282 -10.5539 -6.22671
LeftShoulder1  0.0536675 2.80733 0.855433
LeftArm  -45.1601 15.7287 19.6588
LeftForeArm  7.22168 -54.2127 -15.1215
LeftHand  -0.103529 3.27258 4.90795
RightShoulder  0.497506 -0.749871 10.9557
RightArm  -30.3161 0.908449 -6.99391
RightForeArm  9.97404 63.9873 23.0233
RightHand  -0.156543 -3.08405 -7.25941
LeftUpLeg  -28.2816 3.07466 13.6992
LeftLeg  43.6451 8.11751 8.60131
LeftFoot  -14.6068 -0.287753 -13.107
LeftToes  1.48244e-010 1.61973e-010 3.308e-011
665
root  -65.963 36.0624 4.20298 49.6757 71.9456 40.8519
RightUpLeg  -30.6222 -13.7607 18.0753
RightLeg  35.757 -4.4706 -3.72138
RightFoot  -11.9667 -0.173728 -16.9809
RightToes  7.56698e-010 0 -3.6325e-017
Spine  30.2872 2.7475 -1.82756
Spine1  -7.35184 1.52272 2.56555
HEad  -7.03208 -10.6378 -3.41382
LeftShoulder1  -0.0350795 3.88591 -0.805421
LeftArm  -36.8325 26.2476 19.1983
LeftForeArm  23.8364 -70.272 -31.0404
LeftHand  -0.013892 5.52866 7.09256
RightShoulder  -1.18512 -9.18358 13.698
RightArm  -18.1537 -3.72388 -4.31773
RightForeArm  -5.40553 54.221 16.1807
RightHand  -0.116951 -2.78075 -4.65099
LeftUpLeg  -29.2887 2.10612 13.7641
LeftLeg  50.3714 6.48346 8.76187
LeftFoot  -14.9201 -0.342641 -13.7628
LeftToes  1.48244e-010 1.61973e-010 3.308e-011
666
root  -66.0462 36.6526 5.59477 46.6082 72.8109 35.9774
RightUpLeg  -31.6299 -18.0239 17.8994
RightLeg  37.2738 10.179 7.96299
RightFoot  -6.04032 -0.765427 15.5521
RightToes  7.56698e-010 0 -3.6325e-017
Spine  27.8494 2.03538 -3.57843
Spine1  -8.07675 0.30094 6.21938
HEad  -5.14078 -8.59091 -3.25601
LeftShoulder1  -0.144488 4.66812 -4.45326
LeftArm  -26.424 36.0029 15.8725
LeftForeArm  46.3744 -77.3972 -56.6324
LeftHand  0.0161363 6.14251 6.4636
RightShoulder  -2.43962 -14.0666 16.0434
RightArm  -11.0187 -6.06859 -3.30415
RightForeArm  -9.07591 40.9014 10.2527
RightHand  -0.200519 -1.08901 -5.30885
LeftUpLeg  -27.6001 3.55576 10.8604
LeftLeg  52.885 4.48413 6.81175
LeftFoot  -15.6368 -0.47968 -15.2016
LeftToes  1.48244e-010 1.61973e-010 3.308e-011
667
root  -66.0037 36.8359 6.89502 41.8743 71.2436 30.6671
RightUpLeg  -33.6757 -16.0066 12.6105
RightLeg  49.7945 14.8941 17.7895
RightFoot  -8.64526 -0.743334 28.4919
RightToes  7.56698e-010 0 -3.6325e-017
Spine  25.0307 0.998643 -4.44933
Spine1  -7.7384 -0.6748 7.26397
HEad  -2.18595 -7.22323 -5.00812
LeftShoulder1  -0.288642 5.42118 -7.41298
LeftArm  -17.9999 43.2944 6.00556
LeftForeArm  65.8301 -79.1221 -75.9492
LeftHand  0.0281568 6.57929 5.56239
RightShoulder  -2.79887 -14.5826 18.35
RightArm  -10.2716 -6.73094 -3.88414
RightForeArm  -12.0032 30.298 7.23949
RightHand  -0.193436 -1.16562 -5.19907
LeftUpLeg  -21.7657 7.312 6.71092
LeftLeg  48.6703 -1.05265 -0.835417
LeftFoot  -17.3505 -0.886629 -18.7144
LeftToes  1.48244e-010 1.61973e-010 3.308e-011
668
root  -66.0329 36.633 8.13452 35.6816 68.7983 24.3582
RightUpLeg  -36.6852 -12.0828 5.09046
RightLeg  63.2215 4.85391 9.8412
RightFoot  -10.7395 -0.204635 24.5629
RightToes  7.56698e-010 0 -3.6325e-017
Spine  22.7969 0.373238 -3.04633
Spine1  -8.19179 -0.818085 6.84296
HEad  0.410108 -6.04158 -7.91121
LeftShoulder1  -0.346229 5.44433 -10.5146
LeftArm  -12.8677 48.0319 -7.36603
LeftForeArm  94.4201 -79.5634 -99.1259
LeftHand  -0.00249057 6.09602 4.23154
RightShoulder  -2.86887 -14.5844 19.0168
RightArm  -6.65801 -6.1857 -3.55224
RightForeArm  -17.4494 27.3866 6.76641
RightHand  -0.245285 -0.0808147 -5.38813
LeftUpLeg  -14.8404 11.1227 4.35397
LeftLeg  41.7692 -12.3751 -11.213
LeftFoot  -22.3352 -2.44681 -26.3746
LeftToes  1.48244e-010 1.61973e-010 3.308e-011
669
root  -66.1092 36.2451 9.42189 30.5514 66.9907 19.0023
RightUpLeg  -39.0486 -9.72114 -3.67552
RightLeg  73.3603 -0.098225 -1.38555
RightFoot  -12.2944 0.0393189 14.7411
RightToes  7.56698e-010 0 -3.6325e-017
Spine  20.8899 -0.0766155 -0.99365
Spine1  -8.81741 -0.87157 6.4227
HEad  2.5781 -4.63242 -10.5883
LeftShoulder1  -0.221282 4.51711 -14.9207
LeftArm  -12.0556 49.1505 -23.8544
LeftForeArm  111.461 -79.547 -108.244
LeftHand  -0.0411323 4.42113 2.30001
RightShoulder  -2.60445 -13.149 20.2258
RightArm  -4.23758 -4.11539 -2.57625
RightForeArm  -13.0897 26.404 6.3285
RightHand  -0.208733 0.397237 -4.25239
LeftUpLeg  -8.69641 11.8242 2.91595
LeftLeg  33.5263 -12.4293 -8.36888
LeftFoot  -26.4088 -1.62324 -13.4193
LeftToes  1.48244e-010 1.61973e-010 3.308e-011
670
root  -66.2673 35.61 10.8687 25.4165 65.8889 13.5968
RightUpLeg  -40.3323 -9.35573 -12.1894
RightLeg  77.2007 -1.63206 -9.83851
RightFoot  -13.4589 0.05216 7.76007
RightToes  7.56698e-010 0 -3.6325e-017
Spine  19.3912 -0.708167 1.07402
Spine1  -9.18338 -1.27012 6.46097
HEad  4.03863 -3.0136 -12.7113
LeftShoulder1  0.115169 3.08838 -21.2827
LeftArm  -10.7678 42.17 -37.1891
LeftForeArm  91.3209 -80.1928 -83.9664
LeftHand  -0.0337563 2.83233 0.861068
RightShoulder  -1.75771 -9.23703 24.103
RightArm  -5.53463 -0.769094 -2.25075
RightForeArm  -13.5101 26.5576 6.38478
RightHand  -0.217253 0.986296 -4.06832
LeftUpLeg  -3.54201 9.58071 5.22604
LeftLeg  25.6164 -3.37342 -1.40054
LeftFoot  -33.0811 -2.81745 -15.6276
LeftToes  1.48244e-010 1.61973e-010 3.308e-011
